<svg viewBox="0 0 33 33" style="background-color:#ffffff00" xmlns="http://www.w3.org/2000/svg" width="33" height="33"><path d="M0 0h33v33H0V0z" fill="#fff"/><path d="M21 11l3 3-9 9-3-3 9-9z" fill="#0076bf"/><path d="M12 14l-3 3 6 6 3-3-6-6z" fill="#0076bf"/><path opacity=".1" visibility="hidden" d="M0 32h32V0h1v33H0v-1z" stroke="#000" fill="none"/><path opacity=".2" visibility="hidden" d="M32 1H1v31H0V0h32v1z" stroke="#000" fill="none"/><path opacity=".2" d="M0 0h1v32H0z"/><path opacity=".1" d="M32 0h1v32h-1z"/><path opacity=".2" d="M1 0h31v1H1z"/><path opacity=".1" d="M0 32h33v1H0z"/></svg>