<svg xmlns="http://www.w3.org/2000/svg" width="17" height="17" viewBox="0 0 17 17">
  <defs>
    <style>
      .cls-1 {
        fill: #000000;
      }

      .cls-1, .cls-2 {
        fill-rule: evenodd;
      }

      .cls-2 {
        fill: #000000;
      }
    </style>
  </defs>
  <g id="Artboard_1" data-name="Artboard 1">
    <path class="cls-1" d="M277.319-32.206a14.286,14.286,0,0,0-11.455-9.671L106.125-64.582,34.243-209.116A14.245,14.245,0,0,0,21.527-217h0a14.155,14.155,0,0,0-12.716,7.989L-62.125-64.056-221.864-40.3a14.283,14.283,0,0,0-11.454,9.671,14.036,14.036,0,0,0,3.678,14.506L-113.725,96.246l-26.8,159.145a14.011,14.011,0,0,0,5.675,13.876,14.025,14.025,0,0,0,8.3,2.733,13.49,13.49,0,0,0,6.621-1.682L22.683,194.739l143.029,74.738a14.513,14.513,0,0,0,6.516,1.577h0a14.265,14.265,0,0,0,14.187-14.191A11.109,11.109,0,0,0,186,253.6l-27.639-158.2,115.179-113A13.9,13.9,0,0,0,277.319-32.206ZM133.344,80.373a14.033,14.033,0,0,0-3.994,12.614L153.416,231,29.2,166.148a14.368,14.368,0,0,0-13.241,0l-123.8,65.592L-84.615,93.513A14.179,14.179,0,0,0-88.713,81L-189.18-16.544l138.615-20.6a14.082,14.082,0,0,0,10.614-7.779L21.632-170.749,84.056-45.24a14.437,14.437,0,0,0,10.719,7.779L233.5-17.7Z"/>
    <path class="cls-2" d="M15.484,8.775A1.965,1.965,0,0,0,16,7.417a1.662,1.662,0,0,0-.534-1.231,1.754,1.754,0,0,0-1.266-.52H11.6a2.251,2.251,0,0,1,.075-0.219,1.5,1.5,0,0,1,.1-0.2c0.044-.073.075-0.128,0.094-0.164q0.169-.31.258-0.51a3.634,3.634,0,0,0,.178-0.547A2.765,2.765,0,0,0,12.4,3.333c0-.146,0-0.264,0-0.355a3.828,3.828,0,0,0-.047-0.41,2.252,2.252,0,0,0-.113-0.456,2.1,2.1,0,0,0-.225-0.41,1.3,1.3,0,0,0-.375-0.369A2.084,2.084,0,0,0,11.074,1.1,2.875,2.875,0,0,0,10.3,1a0.585,0.585,0,0,0-.422.173,1.581,1.581,0,0,0-.319.456,2.666,2.666,0,0,0-.183.474q-0.052.2-.117,0.556-0.085.383-.127,0.551a2.862,2.862,0,0,1-.164.442,1.393,1.393,0,0,1-.291.438,13.583,13.583,0,0,0-.947,1.094q-0.459.583-.947,1.1a1.547,1.547,0,0,1-.712.538,0.622,0.622,0,0,0-.4.187,0.542,0.542,0,0,0-.169.4V13.25a0.538,0.538,0,0,0,.178.406,0.629,0.629,0,0,0,.422.178,7.014,7.014,0,0,1,1.481.4q0.722,0.237,1.13.36T9.85,14.859A7.153,7.153,0,0,0,11.2,15h1.209a2.363,2.363,0,0,0,1.847-.711,2.148,2.148,0,0,0,.459-1.65,1.762,1.762,0,0,0,.506-0.857,1.825,1.825,0,0,0,0-1.066,1.856,1.856,0,0,0,.4-1.249A2.12,2.12,0,0,0,15.484,8.775ZM4.3,6.833H1.6a0.585,0.585,0,0,0-.422.173A0.553,0.553,0,0,0,1,7.417V13.25a0.554,0.554,0,0,0,.178.41,0.586,0.586,0,0,0,.422.173H4.3a0.585,0.585,0,0,0,.422-0.173A0.554,0.554,0,0,0,4.9,13.25V7.417a0.553,0.553,0,0,0-.178-0.41A0.585,0.585,0,0,0,4.3,6.833ZM3.222,12.5a0.618,0.618,0,0,1-.848,0,0.577,0.577,0,0,1,0-.825,0.606,0.606,0,0,1,.848,0A0.566,0.566,0,0,1,3.222,12.5Z"/>
  </g>
</svg>
