<svg xmlns="http://www.w3.org/2000/svg" viewBox="0 0 32 32" width="32" height="32"><path d="M0 0v32h32V0H0zm17.65 20.75a3.51 3.51 0 0 1-3-1.53s-.71 2.82-.86 3.37a13.05 13.05 0 0 1-2.21 4 .16.16 0 0 1-.29-.07 13.76 13.76 0 0 1 0-4.66l1.61-6.66a4.71 4.71 0 0 1-.39-1.94c0-1.82 1.05-3.17 2.36-3.17a1.64 1.64 0 0 1 1.65 1.84 26.28 26.28 0 0 1-1.08 4.35 1.9 1.9 0 0 0 1.93 2.36c2.32 0 3.88-3 3.88-6.52 0-2.68-1.81-4.7-5.1-4.7a5.8 5.8 0 0 0-6 5.6v.27a3.54 3.54 0 0 0 .81 2.4.59.59 0 0 1 .18.68c-.06.23-.19.77-.25 1a.42.42 0 0 1-.48.35h-.13C8.54 17 7.74 15.1 7.74 13c0-3.48 2.94-7.65 8.76-7.65 4.68 0 7.76 3.38 7.76 7 0 4.81-2.67 8.4-6.61 8.4z" fill="#a6a6a6"/></svg>