<svg width="250" height="50" viewBox="0 0 250 50" fill="none" xmlns="http://www.w3.org/2000/svg">
<rect x="0.5" y="0.5" width="249" height="49" rx="14.5" fill="white"/>
<path fill-rule="evenodd" clip-rule="evenodd" d="M107.823 33.1147H141.505C144.095 33.1147 146.214 35.0482 146.214 37.415V39.5856C146.214 41.9524 144.095 43.8858 141.505 43.8858H107.823C105.233 43.8858 103.115 41.9524 103.115 39.5856V37.415C103.115 35.0482 105.233 33.1147 107.823 33.1147Z" fill="#292B6E"/>
<path d="M141.505 44H107.823C105.164 44 103 42.0175 103 39.5853V37.4147C103 34.9784 105.164 33 107.823 33H141.505C144.165 33 146.329 34.9825 146.329 37.4147V39.5853C146.329 42.0216 144.165 44 141.505 44ZM107.823 33.2289C105.291 33.2289 103.229 35.1052 103.229 37.4147V39.5853C103.229 41.8907 105.291 43.7711 107.823 43.7711H141.505C144.038 43.7711 146.099 41.8948 146.099 39.5853V37.4147C146.099 35.1093 144.038 33.2289 141.505 33.2289H107.823Z" fill="#1F1A17"/>
<path d="M139.592 35.6654H141.317V41.2656H139.592V35.6654ZM136.563 35.6654H138.289V41.2656H136.563V35.6654ZM131.302 35.6654H133.023V39.888H135.711V41.2696H131.302V35.6695V35.6654ZM128.314 39.1318L127.699 37.1165L127.089 39.1318H128.318H128.314ZM128.675 40.3417H126.712L126.441 41.2656H124.683L126.777 35.6654H128.654L130.748 41.2656H128.945L128.671 40.3417H128.675ZM119.761 35.6654H124.995V37.0511H123.237V41.2696H121.515V37.0511H119.761V35.6654V35.6654ZM114.528 35.6654H119.143V36.8631H116.254V37.7542H118.934V38.8947H116.254V39.9984H119.225V41.2656H114.524V35.6654H114.528ZM110.221 36.9326V39.9943H110.643C111.004 39.9943 111.258 39.9534 111.41 39.8757C111.561 39.7981 111.68 39.655 111.766 39.4547C111.852 39.2544 111.893 38.9315 111.893 38.4818C111.893 37.8891 111.799 37.4844 111.606 37.2637C111.414 37.043 111.094 36.9367 110.647 36.9367H110.217L110.221 36.9326ZM108.5 35.6654H111.057C111.561 35.6654 111.967 35.7349 112.278 35.8698C112.59 36.0088 112.844 36.205 113.049 36.4625C113.25 36.72 113.397 37.0184 113.491 37.3618C113.582 37.7052 113.627 38.0649 113.627 38.445C113.627 39.0418 113.557 39.5078 113.422 39.8389C113.287 40.1701 113.098 40.4439 112.856 40.6688C112.614 40.8936 112.356 41.0407 112.082 41.1143C111.705 41.2165 111.36 41.2656 111.057 41.2656H108.5V35.6654V35.6654Z" fill="white"/>
<path d="M195.058 7.14343H201.878V8.96296H197.607V10.3153H201.566V12.0529H197.607V13.729H202V15.6551H195.054V7.14343H195.058ZM185.494 7.14343H187.87L190.973 11.8521V7.14343H193.37V15.6551H190.973L187.887 10.9833V15.6551H185.494V7.14343V7.14343ZM181.1 7.14343H183.649V15.6551H181.1V7.14343ZM173.322 7.14343H175.867V13.5569H179.838V15.6551H173.318V7.14343H173.322ZM163.753 7.14343H166.13L169.232 11.8521V7.14343H171.63V15.6551H169.232L166.147 10.9833V15.6551H163.753V7.14343V7.14343ZM156.377 11.4177C156.377 12.2783 156.529 12.893 156.84 13.27C157.147 13.6429 157.569 13.8314 158.102 13.8314C158.635 13.8314 159.073 13.647 159.373 13.2823C159.672 12.9135 159.823 12.2537 159.823 11.3029C159.823 10.4997 159.668 9.91781 159.352 9.54489C159.041 9.17606 158.614 8.99165 158.078 8.99165C157.541 8.99165 157.151 9.17606 156.844 9.55308C156.533 9.926 156.377 10.5489 156.377 11.4177V11.4177ZM153.832 11.4054C153.832 10.0162 154.209 8.93428 154.955 8.15975C155.705 7.38522 156.75 7 158.086 7C159.422 7 160.512 7.38112 161.258 8.14335C161.999 8.90149 162.368 9.96699 162.368 11.3398C162.368 12.3357 162.204 13.1512 161.881 13.7864C161.557 14.4216 161.09 14.9174 160.475 15.274C159.86 15.6305 159.098 15.8067 158.184 15.8067C157.27 15.8067 156.488 15.6551 155.877 15.3477C155.27 15.0404 154.775 14.5568 154.398 13.897C154.021 13.2372 153.828 12.4053 153.828 11.4136L153.832 11.4054ZM145.898 12.4094L144.988 9.34818L144.083 12.4094H145.898ZM146.431 14.2494H143.53L143.132 15.6551H140.53L143.628 7.14343H146.402L149.5 15.6551H146.837L146.431 14.2494V14.2494ZM133.047 7.14343H139.866V8.96296H135.596V10.3153H139.554V12.0529H135.596V13.729H139.989V15.6551H133.043V7.14343H133.047ZM126.691 10.5899H127.764C127.879 10.5899 128.105 10.553 128.436 10.4751C128.604 10.4383 128.744 10.3522 128.85 10.2088C128.957 10.0653 129.01 9.90142 129.01 9.717C129.01 9.44244 128.924 9.23344 128.756 9.08591C128.588 8.93838 128.273 8.86461 127.805 8.86461H126.687V10.594L126.691 10.5899ZM124.133 15.6551V7.14343H128.375C129.162 7.14343 129.764 7.2131 130.178 7.35243C130.596 7.49177 130.928 7.74994 131.186 8.12696C131.44 8.50398 131.567 8.96296 131.567 9.50391C131.567 9.97928 131.469 10.385 131.276 10.7251C131.08 11.0694 130.813 11.3439 130.473 11.5611C130.256 11.6964 129.957 11.807 129.58 11.8972C129.883 12.0037 130.104 12.1062 130.244 12.2127C130.334 12.2824 130.473 12.4299 130.649 12.6594C130.83 12.8889 130.949 13.0651 131.006 13.188L132.235 15.6551H129.359L127.998 13.0528C127.826 12.7168 127.67 12.4996 127.535 12.3971C127.355 12.266 127.146 12.2004 126.912 12.2004H126.687V15.6551H124.129H124.133ZM119.683 12.4094L118.773 9.34818L117.868 12.4094H119.683ZM120.216 14.2494H117.314L116.917 15.6551H114.315L117.417 7.14343H120.191L123.289 15.6551H120.626L120.22 14.2494H120.216ZM105.696 7.14343H108.073L111.175 11.8521V7.14343H113.573V15.6551H111.175L108.09 10.9833V15.6551H105.696V7.14343ZM98.3199 11.4177C98.3199 12.2783 98.4715 12.893 98.783 13.27C99.0903 13.6429 99.5124 13.8314 100.045 13.8314C100.578 13.8314 101.016 13.647 101.316 13.2823C101.615 12.9135 101.766 12.2537 101.766 11.3029C101.766 10.4997 101.611 9.91781 101.295 9.54489C100.984 9.17606 100.557 8.99165 100.021 8.99165C99.4838 8.99165 99.0944 9.17606 98.7871 9.55308C98.4756 9.926 98.3199 10.5489 98.3199 11.4177V11.4177ZM95.775 11.4054C95.775 10.0162 96.152 8.93428 96.8979 8.15975C97.6478 7.38522 98.6928 7 100.029 7C101.365 7 102.455 7.38112 103.201 8.14335C103.942 8.90149 104.311 9.96699 104.311 11.3398C104.311 12.3357 104.147 13.1512 103.824 13.7864C103.5 14.4216 103.033 14.9174 102.418 15.274C101.803 15.6305 101.041 15.8067 100.127 15.8067C99.2133 15.8067 98.4306 15.6551 97.8199 15.3477C97.2134 15.0404 96.7176 14.5568 96.3405 13.897C95.9635 13.2372 95.7709 12.4053 95.7709 11.4136L95.775 11.4054ZM91.7139 7.14343H94.2628V15.6551H91.7139V7.14343ZM85.3537 16.6099L85.5217 15.9255C85.8741 15.8354 86.202 15.7903 86.5093 15.7903C87.1486 15.7903 87.5912 15.9051 87.8371 16.1263C88.0789 16.3517 88.2018 16.614 88.2018 16.9214C88.2018 17.1058 88.1445 17.2984 88.0379 17.4951C87.9273 17.6918 87.7306 17.8516 87.4437 17.9705C87.1568 18.0893 86.7798 18.1508 86.3085 18.1508C85.8823 18.1508 85.3783 18.0975 84.8045 17.9992V17.282C85.1939 17.3599 85.6078 17.4008 86.0463 17.4008C86.37 17.4008 86.5872 17.3558 86.7019 17.2656C86.8167 17.1754 86.8741 17.0607 86.8741 16.9173C86.8741 16.8025 86.8249 16.7083 86.7347 16.6263C86.6405 16.5443 86.4929 16.5075 86.2962 16.5075C86.0299 16.5075 85.7184 16.5403 85.3578 16.6058L85.3537 16.6099ZM82.7268 7.14343H90.464V9.24573H87.8658V15.6551H85.3209V9.24573H82.7268V7.14343ZM79.0796 7.14343H81.6204V12.2209C81.6204 12.725 81.5425 13.1962 81.3909 13.647C81.2393 14.0937 81.0016 14.4871 80.6778 14.8191C80.3541 15.1551 80.0139 15.3887 79.6574 15.5239C79.1615 15.7124 78.5714 15.8067 77.8748 15.8067C77.4731 15.8067 77.0347 15.778 76.5634 15.7206C76.088 15.6633 75.6946 15.5485 75.3749 15.3764C75.0553 15.2043 74.7643 14.9584 74.5021 14.6429C74.2357 14.3273 74.0554 13.9995 73.9611 13.6634C73.8054 13.1225 73.7234 12.643 73.7234 12.225V7.14343H76.2642V12.3398C76.2642 12.8069 76.3872 13.1676 76.6371 13.4257C76.8871 13.688 77.2314 13.8191 77.674 13.8191C78.1165 13.8191 78.4567 13.6921 78.7067 13.4339C78.9525 13.1799 79.0796 12.811 79.0796 12.3398V7.14343ZM66.3388 7.14343H68.8877V13.5569H72.8587V15.6551H66.3388V7.14343ZM58.9787 11.4177C58.9787 12.2783 59.1303 12.893 59.4417 13.27C59.7491 13.6429 60.1712 13.8314 60.7039 13.8314C61.2367 13.8314 61.6752 13.647 61.9743 13.2823C62.2735 12.9135 62.4251 12.2537 62.4251 11.3029C62.4251 10.4997 62.2694 9.91781 61.9538 9.54489C61.6424 9.17606 61.2162 8.99165 60.6794 8.99165C60.1425 8.99165 59.7532 9.17606 59.4458 9.55308C59.1344 9.926 58.9787 10.5489 58.9787 11.4177V11.4177ZM56.4338 11.4054C56.4338 10.0162 56.8108 8.93428 57.5566 8.15975C58.3066 7.38522 59.3516 7 60.6875 7C62.0235 7 63.1136 7.38112 63.8594 8.14335C64.6012 8.90149 64.97 9.96699 64.97 11.3398C64.97 12.3357 64.8061 13.1512 64.4823 13.7864C64.1586 14.4216 63.6914 14.9174 63.0767 15.274C62.462 15.6305 61.6998 15.8067 60.7859 15.8067C59.872 15.8067 59.0893 15.6551 58.4787 15.3477C57.8722 15.0404 57.3763 14.5568 56.9993 13.897C56.6223 13.2372 56.4297 12.4053 56.4297 11.4136L56.4338 11.4054ZM48 12.8397L50.4219 12.684C50.4752 13.0897 50.5818 13.4011 50.7416 13.6142C51.0039 13.9585 51.3768 14.1306 51.8645 14.1306C52.2251 14.1306 52.5079 14.0445 52.7046 13.8683C52.9013 13.6921 52.9996 13.4872 52.9996 13.2577C52.9996 13.0364 52.9095 12.8397 52.7209 12.6635C52.5324 12.4873 52.098 12.3234 51.4178 12.1717C50.3031 11.9136 49.504 11.5693 49.0286 11.139C48.5491 10.7087 48.3115 10.1637 48.3115 9.49571C48.3115 9.05722 48.4344 8.64332 48.6803 8.254C48.9262 7.86469 49.295 7.56143 49.7867 7.33604C50.2785 7.11475 50.9547 7.0041 51.8112 7.0041C52.8644 7.0041 53.6676 7.2049 54.2208 7.61061C54.7741 8.01632 55.1019 8.65971 55.2085 9.54079L52.807 9.68422C52.7455 9.3031 52.6103 9.02034 52.4054 8.84822C52.2005 8.6761 51.9218 8.59004 51.5612 8.59004C51.262 8.59004 51.0407 8.65151 50.8932 8.78265C50.7416 8.90969 50.6678 9.06951 50.6678 9.25802C50.6678 9.39326 50.7293 9.5121 50.8522 9.62275C50.9752 9.73749 51.2579 9.83995 51.7087 9.9342C52.8193 10.1801 53.6184 10.4342 54.0979 10.6882C54.5774 10.9423 54.9298 11.2538 55.147 11.6308C55.3642 12.0037 55.4748 12.4258 55.4748 12.893C55.4748 13.438 55.3273 13.9421 55.0363 14.4011C54.7454 14.8641 54.3356 15.2125 53.811 15.4502C53.2865 15.6879 52.6267 15.8067 51.8276 15.8067C50.426 15.8067 49.4589 15.528 48.918 14.9707C48.377 14.4134 48.0738 13.7085 48 12.8479V12.8397Z" fill="#292B6E"/>
<path d="M160.814 23.5448H161.887C162.002 23.5448 162.228 23.5079 162.56 23.4301C162.728 23.3932 162.867 23.3071 162.973 23.1678C163.08 23.0285 163.133 22.8645 163.133 22.6801C163.133 22.4097 163.047 22.2007 162.879 22.0572C162.711 21.9097 162.392 21.84 161.928 21.84H160.81V23.5448H160.814ZM158.257 28.5362V20.1434H162.502C163.289 20.1434 163.891 20.2131 164.305 20.3524C164.723 20.4877 165.059 20.7417 165.313 21.1147C165.568 21.4876 165.695 21.9384 165.695 22.4711C165.695 22.9383 165.596 23.3399 165.404 23.6759C165.207 24.012 164.941 24.2866 164.6 24.4997C164.383 24.6308 164.084 24.7455 163.707 24.8316C164.01 24.934 164.232 25.0406 164.371 25.143C164.461 25.2127 164.6 25.3561 164.777 25.5815C164.957 25.8069 165.076 25.979 165.133 26.102L166.367 28.5362H163.486L162.125 25.9709C161.953 25.6389 161.797 25.4258 161.662 25.3234C161.482 25.1963 161.269 25.1308 161.039 25.1308H160.814V28.5362H158.257V28.5362ZM150.856 24.3562C150.856 25.2045 151.007 25.811 151.319 26.184C151.626 26.5528 152.048 26.7372 152.581 26.7372C153.114 26.7372 153.552 26.5569 153.851 26.1921C154.15 25.8274 154.302 25.1799 154.302 24.2415C154.302 23.4506 154.146 22.8727 153.831 22.508C153.519 22.1433 153.093 21.963 152.556 21.963C152.019 21.963 151.63 22.1474 151.319 22.5162C151.007 22.885 150.851 23.4997 150.851 24.3521L150.856 24.3562ZM148.307 24.3439C148.307 22.9752 148.684 21.9056 149.429 21.1434C150.179 20.3811 151.224 20 152.56 20C153.896 20 154.99 20.377 155.732 21.127C156.474 21.8769 156.847 22.926 156.847 24.2784C156.847 25.2578 156.683 26.0651 156.359 26.6921C156.035 27.3191 155.568 27.8068 154.954 28.1592C154.339 28.5075 153.577 28.6838 152.663 28.6838C151.749 28.6838 150.966 28.5321 150.356 28.233C149.749 27.9297 149.253 27.4543 148.872 26.8028C148.495 26.1512 148.302 25.3316 148.302 24.3521L148.307 24.3439ZM141.143 20.1434H143.692V26.4667H147.667V28.5321H141.143V20.1393V20.1434ZM136.762 20.1434H139.315V28.5362H136.762V20.1434ZM132.279 20.1434H134.832V28.5362H132.279V20.1434ZM126.73 25.4955V23.7497H130.664V27.3273C129.91 27.8478 129.247 28.2084 128.665 28.3928C128.087 28.5813 127.398 28.6756 126.603 28.6756C125.624 28.6756 124.829 28.5075 124.21 28.1674C123.591 27.8314 123.116 27.3232 122.776 26.6511C122.436 25.979 122.263 25.2086 122.263 24.3398C122.263 23.4219 122.448 22.6268 122.821 21.9466C123.194 21.2704 123.735 20.7581 124.452 20.4057C125.009 20.1352 125.763 20 126.706 20C127.648 20 128.296 20.0861 128.751 20.2541C129.201 20.4221 129.574 20.6803 129.874 21.0368C130.173 21.3892 130.394 21.8359 130.546 22.381L128.091 22.8277C127.988 22.5121 127.816 22.2703 127.575 22.1023C127.333 21.9343 127.025 21.8482 126.652 21.8482C126.095 21.8482 125.648 22.0449 125.317 22.4383C124.985 22.8358 124.817 23.4587 124.817 24.3152C124.817 25.225 124.985 25.8725 125.321 26.2618C125.657 26.6511 126.124 26.8478 126.722 26.8478C127.005 26.8478 127.279 26.8069 127.538 26.7208C127.796 26.6388 128.095 26.4954 128.427 26.2946V25.5037H126.726L126.73 25.4955ZM118.206 20.1434H120.759V28.5362H118.206V20.1434ZM109.211 20.1434H116.952V22.217H114.354V28.5362H111.809V22.217H109.211V20.1434V20.1434ZM105.408 20.1434H107.961V28.5362H105.408V20.1434ZM97.626 20.1434H100.175V26.4667H104.15V28.5321H97.626V20.1393V20.1434ZM89.3684 25.3357L88.4587 22.3195L87.553 25.3357H89.3725H89.3684ZM89.9012 27.1511H86.9998L86.6023 28.5362H84L87.0981 20.1434H89.8766L92.9747 28.5362H90.3069L89.9012 27.1511V27.1511Z" fill="#292B6E"/>
<rect x="0.5" y="0.5" width="249" height="49" rx="14.5" stroke="#292B6E"/>
</svg>
