<svg viewBox="0 0 32 32" style="background-color:#ffffff00" xmlns="http://www.w3.org/2000/svg" width="32" height="32"><path d="M16.7 22.7c0 1.9-1.6 3.5-4.9 3.5-2.6 0-4.5-1.7-4.5-3.6 0-2 2.2-3.6 4.8-3.6 2.8 0 4.6 1.8 4.6 3.7zM32 0v32H0V0h32zM18.9 22.4c0-1.8-.7-3-2.7-4.5-2.1-1.5-2.6-2.4-.6-3.9 1.1-.9 1.9-2 1.9-3.4 0-1.6-.7-3-1.9-3.7h1.7l1.5-1.5h-6.5c-4 0-6 2.4-6 5.1 0 2.7 1.9 4.8 5.5 4.8-.5 1.1-.3 2.2.6 2.9-6.2 0-7.5 2.8-7.5 4.8 0 2.8 3.1 4.4 6.8 4.4 5.1 0 7.2-2.7 7.2-5zm8.4-13.7h-3v-3h-1.5v3h-2.9v1.5h2.9v2.9h1.5v-2.9h3V8.7zm-12.4 1.9c-.3-2.2-1.8-4.1-3.6-4.1-1.7-.1-2.8 1.6-2.5 3.9.3 2.3 1.9 3.9 3.6 3.9 1.8.1 2.8-1.4 2.5-3.7z"/></svg>