<svg xmlns="http://www.w3.org/2000/svg" viewBox="0 0 24 24" width="24" height="24"><path d="M9.478 24c-1.265 0-2.192-.783-1.307-4.228l1.455-6.11c.253-.978.294-1.37 0-1.37-.38 0-2.02.677-2.992 1.343L6 12.578c3.076-2.623 6.615-4.16 8.13-4.16 1.265 0 .476 1.526-.156 3.875l-1.66 6.422c-.296 1.135.83 1.526 1.125 1.526.376 0 1.62-.47 2.84-1.446l.718.978C14.008 22.825 10.74 24 9.478 24zm4.93-24c1.6 0 2.402 1.096 2.402 2.35 0 1.565-1.39 3.012-3.202 3.012-1.517 0-2.402-.9-2.36-2.387C11.248 1.722 12.3 0 14.408 0z" fill="#fff"/></svg>