<svg xmlns="http://www.w3.org/2000/svg" width="17" height="17" viewBox="0 0 17 17">
  <defs>
    <style>
      .cls-1 {
        fill: #000000;
      }

      .cls-1, .cls-2 {
        fill-rule: evenodd;
      }

      .cls-2 {
        fill: #000000;
      }
    </style>
  </defs>
  <g id="Artboard_1" data-name="Artboard 1">
    <path class="cls-1" d="M277.319-32.206a14.286,14.286,0,0,0-11.455-9.671L106.125-64.582,34.243-209.116A14.245,14.245,0,0,0,21.527-217h0a14.155,14.155,0,0,0-12.716,7.989L-62.125-64.056-221.864-40.3a14.283,14.283,0,0,0-11.454,9.671,14.036,14.036,0,0,0,3.678,14.506L-113.725,96.246l-26.8,159.145a14.011,14.011,0,0,0,5.675,13.876,14.025,14.025,0,0,0,8.3,2.733,13.49,13.49,0,0,0,6.621-1.682L22.683,194.739l143.029,74.738a14.513,14.513,0,0,0,6.516,1.577h0a14.265,14.265,0,0,0,14.187-14.191A11.109,11.109,0,0,0,186,253.6l-27.639-158.2,115.179-113A13.9,13.9,0,0,0,277.319-32.206ZM133.344,80.373a14.033,14.033,0,0,0-3.994,12.614L153.416,231,29.2,166.148a14.368,14.368,0,0,0-13.241,0l-123.8,65.592L-84.615,93.513A14.179,14.179,0,0,0-88.713,81L-189.18-16.544l138.615-20.6a14.082,14.082,0,0,0,10.614-7.779L21.632-170.749,84.056-45.24a14.437,14.437,0,0,0,10.719,7.779L233.5-17.7Z"/>
    <path class="cls-2" d="M4.3,2.25H1.6a0.566,0.566,0,0,0-.422.186A0.613,0.613,0,0,0,1,2.875v6.25a0.613,0.613,0,0,0,.178.439A0.566,0.566,0,0,0,1.6,9.75H4.3a0.566,0.566,0,0,0,.422-0.186A0.613,0.613,0,0,0,4.9,9.125V2.875a0.613,0.613,0,0,0-.178-0.439A0.565,0.565,0,0,0,4.3,2.25ZM3.222,4.564a0.578,0.578,0,0,1-.848,0,0.65,0.65,0,0,1,0-.884,0.588,0.588,0,0,1,.848,0A0.637,0.637,0,0,1,3.222,4.564ZM15.484,7.67a2.419,2.419,0,0,0,.14-0.742,2.084,2.084,0,0,0-.4-1.338,2.086,2.086,0,0,0,0-1.143,1.919,1.919,0,0,0-.506-0.918,2.417,2.417,0,0,0-.459-1.768A2.283,2.283,0,0,0,12.408,1H11.2a6.7,6.7,0,0,0-1.35.151,11.468,11.468,0,0,0-1.139.283Q8.3,1.566,7.581,1.82A6.646,6.646,0,0,1,6.1,2.25a0.609,0.609,0,0,0-.422.19,0.6,0.6,0,0,0-.178.434v6.26a0.634,0.634,0,0,0,.572.625,1.556,1.556,0,0,1,.712.576q0.488,0.557.947,1.182a14.339,14.339,0,0,0,.947,1.172,1.5,1.5,0,0,1,.291.469,3.238,3.238,0,0,1,.164.474q0.042,0.18.127,0.591,0.065,0.381.117,0.6a2.974,2.974,0,0,0,.183.508,1.7,1.7,0,0,0,.319.488A0.565,0.565,0,0,0,10.3,16a2.693,2.693,0,0,0,.774-0.1,2.014,2.014,0,0,0,.563-0.254,1.348,1.348,0,0,0,.375-0.4,2.293,2.293,0,0,0,.225-0.44,2.523,2.523,0,0,0,.113-0.488,4.373,4.373,0,0,0,.047-0.44q0-.146,0-0.381a3.084,3.084,0,0,0-.094-0.747,3.967,3.967,0,0,0-.178-0.571q-0.084-.2-0.253-0.556-0.028-.059-0.094-0.176a1.7,1.7,0,0,1-.1-0.215Q11.641,11.137,11.6,11h2.6a1.682,1.682,0,0,0,1.261-.557A1.883,1.883,0,0,0,16,9.125,2.149,2.149,0,0,0,15.484,7.67Z"/>
  </g>
</svg>
