<?xml version="1.0" encoding="utf-8"?>

<!-- The icon can be used freely in both personal and commercial projects with no attribution required, but always appreciated. 
You may NOT sub-license, resell, rent, redistribute or otherwise transfer the icon without express written permission from iconmonstr.com -->

<!DOCTYPE svg PUBLIC "-//W3C//DTD SVG 1.1//EN" "http://www.w3.org/Graphics/SVG/1.1/DTD/svg11.dtd">
<svg version="1.1" xmlns="http://www.w3.org/2000/svg" xmlns:xlink="http://www.w3.org/1999/xlink" x="0px" y="0px"
	 width="512px" height="512px" viewBox="0 0 512 512" enable-background="new 0 0 512 512" xml:space="preserve">
<path id="share-5-icon" d="M50,283.161V177.072h137.551c-14.417,12.523-27.477,26.197-38.979,41.011H91.01v65.078H50z M271,429.466
	v-41.012h-97.988v41.012H271z M353.164,250.723v49.129L462,191.191L353.164,82.534v49.128c0,0-182.498,37.141-219.143,196.722
	C212.039,244.849,353.164,250.723,353.164,250.723z M132,388.454H91.01v-64.281H50v105.293h82V388.454z M354.049,388.454h-42.037
	v41.012h83.047V307.482l-41.01,40.943V388.454z"/>
</svg>
