<svg xmlns="http://www.w3.org/2000/svg" width="512" height="512" viewBox="0 0 512 512">
  <g id="Group_209" data-name="Group 209" transform="translate(-11319 2593)">
    <rect id="Rectangle_169" data-name="Rectangle 169" width="512" height="512" transform="translate(11319 -2593)" fill="none"/>
    <path id="iconmonstr-award-23" d="M297.195,198.227l43.115-43.563-59.264-8.6-26.091-56.6-26.069,56.6-59.264,8.576,43.115,43.563-10.5,61.931,52.715-29.675,52.736,29.675-10.5-61.909ZM94.933,294.611A190.711,190.711,0,0,1,65.621,193c0-106.048,85.952-192,192-192s192,85.952,192,192a190.947,190.947,0,0,1-30.571,103.7,366.119,366.119,0,0,0-39.723-17.472A148.4,148.4,0,0,0,406.955,193c0-82.347-67.008-149.333-149.333-149.333S108.288,110.653,108.288,193a148.484,148.484,0,0,0,26.539,84.779,365.9,365.9,0,0,0-39.893,16.832Zm326.549,52.267-49.792,70.869a228.676,228.676,0,0,0-231.381,0L90.517,346.877a313.871,313.871,0,0,1,330.965,0ZM512,406.333H461.675l-12.075,64a240.245,240.245,0,0,0-48.576-57.173l49.984-71.147c23.211,18.752,43.776,39.424,60.992,64.32ZM61.013,342.013,111,413.16a240.17,240.17,0,0,0-48.576,57.173l-12.075-64H0c17.216-24.9,37.781-45.568,61.013-64.32Z" transform="translate(11319 -2573)" fill="#0076bf"/>
  </g>
</svg>
