<svg xmlns="http://www.w3.org/2000/svg" width="24" height="24" viewBox="0 0 24 24">
  <g id="Group_1447" data-name="Group 1447" transform="translate(-743 -3388)">
    <circle id="Ellipse_9" data-name="Ellipse 9" cx="12" cy="12" r="12" transform="translate(743 3388)" fill="#fff"/>
    <path id="iconmonstr-google-plus-1" d="M7,11v2.4h3.97A3.781,3.781,0,0,1,7,16.42,4.421,4.421,0,0,1,7,7.58,3.939,3.939,0,0,1,9.79,8.66l1.9-1.83A6.71,6.71,0,0,0,7,5,7,7,0,0,0,7,19a6.458,6.458,0,0,0,6.721-6.84A6.432,6.432,0,0,0,13.61,11H7Zm0,0Z" transform="translate(748 3388)" fill="#d44638" fill-rule="evenodd"/>
  </g>
</svg>
