<svg width="650" height="240" viewBox="0 0 650 240" fill="none" xmlns="http://www.w3.org/2000/svg">
<path d="M39.912 165C30.1413 165 22.9093 162.675 18.216 158.024C13.5653 153.331 11.24 146.099 11.24 136.328V106.888C11.24 97.032 13.5653 89.7787 18.216 85.128C22.8667 80.4347 30.056 78.1307 39.784 78.216H55.272C63.2933 78.216 69.416 79.88 73.64 83.208C77.864 86.4933 80.3173 91.6987 81 98.824C81.256 100.616 80.9147 101.981 79.976 102.92C79.0373 103.859 77.672 104.328 75.88 104.328C72.6373 104.328 70.76 102.536 70.248 98.952C69.8213 95.0267 68.456 92.3813 66.152 91.016C63.8907 89.6507 60.264 88.968 55.272 88.968H39.784C35.2613 88.9253 31.6987 89.4373 29.096 90.504C26.536 91.5707 24.7013 93.4267 23.592 96.072C22.5253 98.6747 21.992 102.28 21.992 106.888V136.328C21.992 140.893 22.5253 144.477 23.592 147.08C24.7013 149.683 26.5573 151.539 29.16 152.648C31.7627 153.715 35.3467 154.248 39.912 154.248H55.272C59.24 154.248 62.3333 153.821 64.552 152.968C66.8133 152.072 68.392 150.515 69.288 148.296C70.184 146.077 70.632 142.941 70.632 138.888V132.872L60.648 132.744C57.064 132.744 55.272 130.952 55.272 127.368C55.272 123.784 57.064 121.992 60.648 121.992L76.008 122.12C79.592 122.12 81.384 123.912 81.384 127.496V138.888C81.384 147.976 79.272 154.611 75.048 158.792C70.824 162.931 64.232 165 55.272 165H39.912ZM129.287 165C119.516 165 112.284 162.675 107.591 158.024C102.94 153.331 100.615 146.099 100.615 136.328V106.76C100.615 96.904 102.962 89.672 107.655 85.064C112.348 80.4133 119.559 78.1307 129.287 78.216H144.647C154.46 78.216 161.692 80.5413 166.343 85.192C170.994 89.8427 173.319 97.0747 173.319 106.888V136.328C173.319 146.099 170.994 153.331 166.343 158.024C161.692 162.675 154.46 165 144.647 165H129.287ZM129.287 154.248H144.647C149.212 154.248 152.796 153.715 155.399 152.648C158.002 151.539 159.836 149.683 160.903 147.08C162.012 144.477 162.567 140.893 162.567 136.328V106.888C162.567 102.365 162.012 98.8027 160.903 96.2C159.836 93.5973 158.002 91.7413 155.399 90.632C152.796 89.5227 149.212 88.968 144.647 88.968H129.287C124.764 88.9253 121.202 89.4373 118.599 90.504C115.996 91.5707 114.14 93.4053 113.031 96.008C111.922 98.6107 111.367 102.195 111.367 106.76V136.328C111.367 140.893 111.9 144.477 112.967 147.08C114.076 149.683 115.932 151.539 118.535 152.648C121.138 153.715 124.722 154.248 129.287 154.248ZM202.188 165C198.604 165 196.812 163.208 196.812 159.624V83.592C196.812 80.008 198.604 78.216 202.188 78.216C205.772 78.216 207.564 80.008 207.564 83.592V154.248H243.02C246.604 154.248 248.396 156.04 248.396 159.624C248.396 163.208 246.604 165 243.02 165H202.188ZM271.438 165C267.854 165 266.062 163.208 266.062 159.624V83.592C266.062 80.008 267.854 78.216 271.438 78.216H302.286C313.422 78.216 321.614 80.8613 326.862 86.152C332.153 91.4 334.798 99.592 334.798 110.728V132.488C334.798 143.624 332.174 151.837 326.926 157.128C321.721 162.376 313.507 165 302.286 165H271.438ZM276.814 154.248H302.286C307.747 154.248 312.057 153.587 315.214 152.264C318.414 150.899 320.675 148.637 321.998 145.48C323.363 142.28 324.046 137.949 324.046 132.488V110.728C324.046 105.309 323.363 101.021 321.998 97.864C320.675 94.664 318.414 92.3813 315.214 91.016C312.057 89.6507 307.747 88.968 302.286 88.968H276.814V154.248Z" fill="url(#paint0_linear_1_2)"/>
<path d="M383.912 165C374.141 165 366.909 162.675 362.216 158.024C357.565 153.331 355.24 146.099 355.24 136.328V106.888C355.24 97.032 357.565 89.7787 362.216 85.128C366.867 80.4347 374.056 78.1307 383.784 78.216H399.272C407.293 78.216 413.416 79.88 417.64 83.208C421.864 86.4933 424.317 91.6987 425 98.824C425.256 100.616 424.915 101.981 423.976 102.92C423.037 103.859 421.672 104.328 419.88 104.328C416.637 104.328 414.76 102.536 414.248 98.952C413.821 95.0267 412.456 92.3813 410.152 91.016C407.891 89.6507 404.264 88.968 399.272 88.968H383.784C379.261 88.9253 375.699 89.4373 373.096 90.504C370.536 91.5707 368.701 93.4267 367.592 96.072C366.525 98.6747 365.992 102.28 365.992 106.888V136.328C365.992 140.893 366.525 144.477 367.592 147.08C368.701 149.683 370.557 151.539 373.16 152.648C375.763 153.715 379.347 154.248 383.912 154.248H399.272C404.264 154.248 407.891 153.565 410.152 152.2C412.456 150.792 413.821 148.147 414.248 144.264C414.76 140.68 416.637 138.888 419.88 138.888C421.672 138.888 423.037 139.357 423.976 140.296C424.915 141.235 425.256 142.6 425 144.392C424.317 151.56 421.864 156.787 417.64 160.072C413.416 163.357 407.293 165 399.272 165H383.912ZM503.245 165.256C501.837 166.152 500.493 166.429 499.213 166.088C497.933 165.747 496.845 164.872 495.949 163.464L476.109 130.44H458.189V159.624C458.189 163.208 456.397 165 452.813 165C449.229 165 447.437 163.208 447.437 159.624V83.592C447.437 80.008 449.229 78.216 452.813 78.216H482.765C490.573 78.216 496.546 80.3067 500.685 84.488C504.866 88.6267 506.957 94.6 506.957 102.408V106.248C506.957 113.032 505.378 118.451 502.221 122.504C499.064 126.515 494.498 129.011 488.525 129.992L505.293 157.96C506.914 160.947 506.232 163.379 503.245 165.256ZM458.189 119.688H482.765C487.629 119.688 491.085 118.664 493.133 116.616C495.181 114.568 496.205 111.112 496.205 106.248V102.408C496.205 97.5867 495.181 94.152 493.133 92.104C491.085 90.0133 487.629 88.968 482.765 88.968H458.189V119.688ZM532.813 165C530.978 165 529.613 164.573 528.717 163.72C527.864 162.824 527.437 161.459 527.437 159.624V83.72C527.437 81.8427 527.864 80.4773 528.717 79.624C529.613 78.7707 530.978 78.344 532.813 78.344C534.69 78.344 536.056 78.7707 536.909 79.624C537.762 80.4773 538.189 81.8427 538.189 83.72V159.624C538.189 161.459 537.762 162.824 536.909 163.72C536.056 164.573 534.69 165 532.813 165ZM586.508 165C579.212 165 573.516 163.528 569.42 160.584C565.367 157.64 562.828 153.096 561.804 146.952C561.633 145.075 562.017 143.667 562.956 142.728C563.895 141.789 565.26 141.32 567.052 141.32C568.844 141.32 570.145 141.747 570.956 142.6C571.809 143.453 572.385 144.776 572.684 146.568C573.324 149.512 574.689 151.539 576.78 152.648C578.913 153.715 582.156 154.248 586.508 154.248H604.94C610.444 154.248 614.177 153.267 616.14 151.304C618.145 149.299 619.148 145.587 619.148 140.168C619.148 134.664 618.124 130.909 616.076 128.904C614.028 126.856 610.316 125.832 604.94 125.832H589.068C581.004 125.832 575.009 123.869 571.084 119.944C567.201 115.976 565.26 109.96 565.26 101.896C565.26 93.8747 567.18 87.9227 571.02 84.04C574.903 80.1573 580.876 78.216 588.94 78.216H604.172C610.956 78.216 616.268 79.6027 620.108 82.376C623.991 85.1493 626.444 89.3947 627.468 95.112C627.724 96.9467 627.383 98.3547 626.444 99.336C625.505 100.275 624.097 100.744 622.22 100.744C620.513 100.744 619.233 100.296 618.38 99.4C617.527 98.504 616.972 97.2027 616.716 95.496C616.033 92.9787 614.732 91.272 612.812 90.376C610.892 89.4373 608.012 88.968 604.172 88.968H588.94C583.82 88.968 580.385 89.8853 578.636 91.72C576.887 93.512 576.012 96.904 576.012 101.896C576.012 106.931 576.908 110.387 578.7 112.264C580.492 114.141 583.948 115.08 589.068 115.08H604.94C613.345 115.08 619.596 117.128 623.692 121.224C627.831 125.32 629.9 131.635 629.9 140.168C629.9 148.659 627.852 154.931 623.756 158.984C619.66 162.995 613.388 165 604.94 165H586.508Z" fill="url(#paint1_linear_1_2)"/>
<defs>
<linearGradient id="paint0_linear_1_2" x1="321" y1="42" x2="321" y2="193" gradientUnits="userSpaceOnUse">
<stop stop-color="#A07E05"/>
<stop offset="0.333333" stop-color="#AA8500"/>
<stop offset="0.666667" stop-color="#E0AF02"/>
<stop offset="1" stop-color="#FFC700"/>
</linearGradient>
<linearGradient id="paint1_linear_1_2" x1="321" y1="42" x2="321" y2="193" gradientUnits="userSpaceOnUse">
<stop stop-color="#A78302"/>
<stop offset="0.494792" stop-color="#1E1E1E"/>
</linearGradient>
</defs>
</svg>
