<svg xmlns="http://www.w3.org/2000/svg" viewBox="0 0 37 48" width="37" height="48"><path d="M17.9 31.7H3.7V13.3h6.8c-.5-1.9-.5-3.8-.2-5.6H2.7C1.2 7.7 0 8.9 0 10.5v34.8C0 46.8 1.2 48 2.7 48h16.2c1.4 0 2.6-1.2 2.6-2.7v-22c-1.1.6-2.4 1-3.6 1.4v7zM7 43H3.7v-2.7H7V43zm0-4.8H3.7v-2.7H7v2.7zm5.4 4.8H9.1v-2.7h3.3V43zm0-4.8H9.1v-2.7h3.3v2.7zm5.5 4.8h-3.4v-2.7h3.4V43zm0-4.8h-3.4v-2.7h3.4v2.7zM25.1 0c-6.2 0-11.8 4.3-11.8 10.2 0 2.1.7 4.1 2 5.7.1 1.9-1 4.5-1.9 6.5 2.5-.5 6.2-1.5 7.8-2.6 9.2 2.3 15.8-3.5 15.8-9.6C37 4.3 31.4 0 25.1 0zm-4.3 12c-.9 0-1.6-.7-1.6-1.6 0-.9.7-1.6 1.6-1.6.9 0 1.6.7 1.6 1.6 0 .9-.7 1.6-1.6 1.6zm4.7 0c-.8 0-1.6-.7-1.6-1.6 0-.9.8-1.6 1.6-1.6.9 0 1.6.7 1.6 1.6 0 .9-.7 1.6-1.6 1.6zm4.7 0c-.9 0-1.6-.7-1.6-1.6 0-.9.7-1.6 1.6-1.6.9 0 1.6.7 1.6 1.6 0 .9-.7 1.6-1.6 1.6z"/></svg>