<svg xmlns="http://www.w3.org/2000/svg" width="17" height="17" viewBox="0 0 17 17">
  <defs>
    <style>
      .cls-1 {
        fill: #212121;
      }

      .cls-1, .cls-2 {
        fill-rule: evenodd;
      }

      .cls-2 {
        fill: #6ea845;
      }
    </style>
  </defs>
  <g id="Artboard_1" data-name="Artboard 1">
    <path class="cls-1" d="M277.319-32.206a14.286,14.286,0,0,0-11.455-9.671L106.125-64.582,34.243-209.116A14.245,14.245,0,0,0,21.527-217h0a14.155,14.155,0,0,0-12.716,7.989L-62.125-64.056-221.864-40.3a14.283,14.283,0,0,0-11.454,9.671,14.036,14.036,0,0,0,3.678,14.506L-113.725,96.246l-26.8,159.145a14.011,14.011,0,0,0,5.675,13.876,14.025,14.025,0,0,0,8.3,2.733,13.49,13.49,0,0,0,6.621-1.682L22.683,194.739l143.029,74.738a14.513,14.513,0,0,0,6.516,1.577h0a14.265,14.265,0,0,0,14.187-14.191A11.109,11.109,0,0,0,186,253.6l-27.639-158.2,115.179-113A13.9,13.9,0,0,0,277.319-32.206ZM133.344,80.373a14.033,14.033,0,0,0-3.994,12.614L153.416,231,29.2,166.148a14.368,14.368,0,0,0-13.241,0l-123.8,65.592L-84.615,93.513A14.179,14.179,0,0,0-88.713,81L-189.18-16.544l138.615-20.6a14.082,14.082,0,0,0,10.614-7.779L21.632-170.749,84.056-45.24a14.437,14.437,0,0,0,10.719,7.779L233.5-17.7Z"/>
    <path class="cls-2" d="M2.008,10.922a1,1,0,0,1,.416.648,3.079,3.079,0,0,0-.017.324A2.827,2.827,0,0,0,5.122,14.82a2.535,2.535,0,0,0,.541-0.058,0.914,0.914,0,0,1,.85.3,2.583,2.583,0,0,0,4.057-.1A0.772,0.772,0,0,1,11.4,14.7a2.525,2.525,0,0,0,.758.116,2.827,2.827,0,0,0,2.715-2.927,3.077,3.077,0,0,0-.046-0.529,1.076,1.076,0,0,1,.308-0.875,3.071,3.071,0,0,0-.145-4.41,1,1,0,0,1-.416-0.648,3.059,3.059,0,0,0,.017-0.324A2.827,2.827,0,0,0,11.878,2.18a2.536,2.536,0,0,0-.541.058,0.914,0.914,0,0,1-.85-0.3,2.576,2.576,0,0,0-3.973,0,0.915,0.915,0,0,1-.85.3A2.536,2.536,0,0,0,5.122,2.18,2.827,2.827,0,0,0,2.407,5.107a3.1,3.1,0,0,0,.034.458,0.924,0.924,0,0,1-.375.762A3.064,3.064,0,0,0,2.008,10.922ZM4.87,8.753c0.06-.112.214-0.113,0.355,0.015L6.641,9.815a0.413,0.413,0,0,0,.221.074,0.589,0.589,0,0,0,.373-0.217l4.532-4.756A0.619,0.619,0,0,1,12.507,4.6a0.354,0.354,0,0,1,.151.243,0.474,0.474,0,0,1-.111.358L7.1,12.144a0.367,0.367,0,0,1-.283.156,0.356,0.356,0,0,1-.306-0.213l-1.6-3.023A0.33,0.33,0,0,1,4.87,8.753Z"/>
  </g>
</svg>
