<svg xmlns="http://www.w3.org/2000/svg" viewBox="0 0 32 32" width="32" height="32"><path d="M24 8.82v1.93a.82.82 0 0 1-.82.82h-1.93a.82.82 0 0 1-.82-.82V8.82a.82.82 0 0 1 .82-.81h1.93a.82.82 0 0 1 .82.81zm-1.51 6.27a6.23 6.23 0 0 1 .07.91A6.56 6.56 0 0 1 16 22.56a6.56 6.56 0 0 1-6.56-6.55 6.23 6.23 0 0 1 .07-.91 6.75 6.75 0 0 1 .18-.86H8v9a.82.82 0 0 0 .82.82h14.36a.82.82 0 0 0 .82-.82v-9.05h-1.69a6.75 6.75 0 0 1 .18.91zm-6.49 5a4.1 4.1 0 0 0 4.1-4.1 4.1 4.1 0 0 0-4.1-4.1 4.1 4.1 0 0 0-4.1 4.1 4.1 4.1 0 0 0 4.1 4.1zM32 .01v32H0v-32h32zm-5.33 7.78a2.46 2.46 0 0 0-2.46-2.46H7.75a2.46 2.46 0 0 0-2.46 2.46v16.42a2.46 2.46 0 0 0 2.46 2.45h16.42a2.46 2.46 0 0 0 2.5-2.45V7.79z" fill="#a6a6a6"/></svg>