<svg xmlns="http://www.w3.org/2000/svg" viewBox="0 0 60 48" width="60" height="48"><path d="M47.2 33.3l.7-.4v3.4l-.7.4v-3.4zm-1.1 4.1l.6-.4v-3.4l-.7.4.1 3.4zm5-2.9l.7-.4v-3.5l-.7.4v3.5zM60 13.9v23L40.9 48l-24-14V11L36 0l24 13.9zM32.5 6.1l18.6 11L55 15 36 4l-3.5 2.1zM39 25.8L20.4 15v17L39 42.9V25.8zm5.6-5l-18.5-11-3.9 2.2 18.6 10.8 3.8-2zm11.9-2.7L53.1 20v6.3l-6.6 3.6v-6.2l-4 2.2V43l14-8.1V18.1zm-7.7 17.7l.7-.4V32l-.7.3v3.5zm3.9-2.3l.6-.3.1-.1v-3.4l-.7.4v3.4zm-2.8 1.6l.7-.4v-3.4l-.7.4v3.4zM2.4 15h10.9v3.5H3.5L2.4 15zM0 20.8h13.3v3.4H1.2L0 20.8zM7 30l-1.1-3.5h7.4V30H7z"/></svg>